<svg xmlns="http://www.w3.org/2000/svg" viewBox="-8 -8 1206 775" width="1206" height="775" font-family="Helvetica,Arial,sans-serif">
<defs>
<marker id="ah_2f9e44" viewBox="0 0 10 10" refX="8" refY="5" markerUnits="userSpaceOnUse" markerWidth="12" markerHeight="12" orient="auto-start-reverse"><path d="M0,0 L10,5 L0,10 z" fill="#2f9e44"/></marker>
<marker id="ah_e03131" viewBox="0 0 10 10" refX="8" refY="5" markerUnits="userSpaceOnUse" markerWidth="12" markerHeight="12" orient="auto-start-reverse"><path d="M0,0 L10,5 L0,10 z" fill="#e03131"/></marker>
<marker id="ah_1e1e1e" viewBox="0 0 10 10" refX="8" refY="5" markerUnits="userSpaceOnUse" markerWidth="12" markerHeight="12" orient="auto-start-reverse"><path d="M0,0 L10,5 L0,10 z" fill="#1e1e1e"/></marker>
<marker id="ah_0c8599" viewBox="0 0 10 10" refX="8" refY="5" markerUnits="userSpaceOnUse" markerWidth="12" markerHeight="12" orient="auto-start-reverse"><path d="M0,0 L10,5 L0,10 z" fill="#0c8599"/></marker>
</defs>
<rect x="-8" y="-8" width="1206" height="775" fill="#ffffff"/>
<text x="301" y="20" font-size="23" text-anchor="start" dominant-baseline="hanging" fill="#1e1e1e">fleet-memory Write Path - Zero-LLM Structured Ingest</text>
<rect x="20" y="380" width="160" height="72" rx="12" fill="#a5d8ff" fill-opacity="1.00" stroke="#1971c2" stroke-width="2" stroke-opacity="1.00"/>
<text x="100" y="416" font-size="14" text-anchor="middle" dominant-baseline="central" fill="#1e1e1e">Fleet agent / Claude Desktop</text>
<rect x="240" y="380" width="180" height="72" rx="12" fill="#d0bfff" fill-opacity="1.00" stroke="#6741d9" stroke-width="2" stroke-opacity="1.00"/>
<text x="330" y="416" font-size="14" text-anchor="middle" dominant-baseline="central" fill="#1e1e1e">NATS JetStream (MEMORY)</text>
<path d="M 180,416 L 240,416" fill="none" stroke="#1e1e1e" stroke-width="2" marker-end="url(#ah_1e1e1e)"/>
<rect x="203" y="407" width="14" height="18" fill="#ffffff" fill-opacity="0.82"/>
<text x="210" y="416" font-size="14" text-anchor="middle" dominant-baseline="central" fill="#1e1e1e">1</text>
<rect x="480" y="380" width="180" height="72" rx="12" fill="#d0bfff" fill-opacity="1.00" stroke="#6741d9" stroke-width="2" stroke-opacity="1.00"/>
<text x="570" y="416" font-size="14" text-anchor="middle" dominant-baseline="central" fill="#1e1e1e">fleet-memory consumer</text>
<path d="M 420,416 L 480,416" fill="none" stroke="#1e1e1e" stroke-width="2" marker-end="url(#ah_1e1e1e)"/>
<rect x="443" y="407" width="14" height="18" fill="#ffffff" fill-opacity="0.82"/>
<text x="450" y="416" font-size="14" text-anchor="middle" dominant-baseline="central" fill="#1e1e1e">2</text>
<rect x="700" y="240" width="250" height="74" rx="12" fill="#b2f2bb" fill-opacity="1.00" stroke="#2f9e44" stroke-width="2" stroke-opacity="1.00"/>
<text x="825" y="277" font-size="13" text-anchor="middle" dominant-baseline="central" fill="#1e1e1e">Typed registry -&gt; deterministic writer</text>
<text x="712" y="320" font-size="13" text-anchor="start" dominant-baseline="hanging" fill="#2f9e44">NO LLM . dedup = key lookup</text>
<path d="M 660,400 L 700,277" fill="none" stroke="#2f9e44" stroke-width="2" marker-end="url(#ah_2f9e44)"/>
<rect x="631" y="330" width="99" height="17" fill="#ffffff" fill-opacity="0.82"/>
<text x="680" y="338" font-size="13" text-anchor="middle" dominant-baseline="central" fill="#2f9e44">3a structured</text>
<rect x="700" y="520" width="250" height="74" rx="12" fill="#c3fae8" fill-opacity="1.00" stroke="#0c8599" stroke-width="2" stroke-opacity="1.00"/>
<text x="825" y="557" font-size="13" text-anchor="middle" dominant-baseline="central" fill="#1e1e1e">Heading-aware chunk -&gt; Qwen3-Embedding (1024-dim)</text>
<text x="712" y="600" font-size="13" text-anchor="start" dominant-baseline="hanging" fill="#0c8599">Qwen3-Embedding = the only inference here</text>
<path d="M 660,452 L 700,557" fill="none" stroke="#0c8599" stroke-width="2" marker-end="url(#ah_0c8599)"/>
<rect x="641" y="496" width="78" height="17" fill="#ffffff" fill-opacity="0.82"/>
<text x="680" y="504" font-size="13" text-anchor="middle" dominant-baseline="central" fill="#0c8599">3b md/text</text>
<rect x="470" y="560" width="170" height="46" rx="12" fill="#ffc9c9" fill-opacity="1.00" stroke="#e03131" stroke-width="2" stroke-opacity="1.00"/>
<text x="555" y="583" font-size="13" text-anchor="middle" dominant-baseline="central" fill="#1e1e1e">DLQ (poison msg)</text>
<path d="M 560,452 L 560,560" fill="none" stroke="#e03131" stroke-width="2" stroke-dasharray="9 6" marker-end="url(#ah_e03131)"/>
<rect x="534" y="498" width="52" height="16" fill="#ffffff" fill-opacity="0.82"/>
<text x="560" y="506" font-size="12" text-anchor="middle" dominant-baseline="central" fill="#e03131">nak/max</text>
<rect x="1000" y="378" width="170" height="80" rx="12" fill="#c3fae8" fill-opacity="1.00" stroke="#0c8599" stroke-width="2" stroke-opacity="1.00"/>
<text x="1085" y="418" font-size="14" text-anchor="middle" dominant-baseline="central" fill="#1e1e1e">Postgres + pgvector (NAS)</text>
<path d="M 950,277 L 1000,400" fill="none" stroke="#2f9e44" stroke-width="2" marker-end="url(#ah_2f9e44)"/>
<rect x="968" y="330" width="14" height="18" fill="#ffffff" fill-opacity="0.82"/>
<text x="975" y="338" font-size="14" text-anchor="middle" dominant-baseline="central" fill="#2f9e44">4</text>
<path d="M 950,557 L 1000,440" fill="none" stroke="#0c8599" stroke-width="2" marker-end="url(#ah_0c8599)"/>
<rect x="968" y="490" width="14" height="18" fill="#ffffff" fill-opacity="0.82"/>
<text x="975" y="498" font-size="14" text-anchor="middle" dominant-baseline="central" fill="#0c8599">4</text>
<text x="40" y="674" font-size="13" text-anchor="start" dominant-baseline="hanging" fill="#495057">1  publish MemoryEpisodeV1 (fire-and-forget)        2  consumer drains the MEMORY stream</text>
<text x="40" y="700" font-size="13" text-anchor="start" dominant-baseline="hanging" fill="#495057">3a  structured_json -&gt; typed registry -&gt; deterministic writer  (no LLM, idempotent upsert by natural key)</text>
<text x="40" y="726" font-size="13" text-anchor="start" dominant-baseline="hanging" fill="#495057">3b  markdown / text -&gt; heading-aware chunk -&gt; Qwen3-Embedding (1024-dim)        4  upsert into Postgres + pgvector on the NAS</text>
</svg>
