<svg xmlns="http://www.w3.org/2000/svg" viewBox="22 -8 1166 548" width="1166" height="548" font-family="Helvetica,Arial,sans-serif">
<defs>
<marker id="ah_b45309" viewBox="0 0 10 10" refX="8" refY="5" markerUnits="userSpaceOnUse" markerWidth="12" markerHeight="12" orient="auto-start-reverse"><path d="M0,0 L10,5 L0,10 z" fill="#b45309"/></marker>
<marker id="ah_1e1e1e" viewBox="0 0 10 10" refX="8" refY="5" markerUnits="userSpaceOnUse" markerWidth="12" markerHeight="12" orient="auto-start-reverse"><path d="M0,0 L10,5 L0,10 z" fill="#1e1e1e"/></marker>
<marker id="ah_1971c2" viewBox="0 0 10 10" refX="8" refY="5" markerUnits="userSpaceOnUse" markerWidth="12" markerHeight="12" orient="auto-start-reverse"><path d="M0,0 L10,5 L0,10 z" fill="#1971c2"/></marker>
</defs>
<rect x="22" y="-8" width="1166" height="548" fill="#ffffff"/>
<text x="342" y="20" font-size="24" text-anchor="start" dominant-baseline="hanging" fill="#1e1e1e">Request Routing - Two Paths, One Front Door</text>
<text x="60" y="108" font-size="18" text-anchor="start" dominant-baseline="hanging" fill="#1971c2">Path A   -   swappable fleet model</text>
<rect x="50" y="150" width="180" height="66" rx="12" fill="#a5d8ff" fill-opacity="1.00" stroke="#1971c2" stroke-width="2" stroke-opacity="1.00"/>
<text x="140" y="183" font-size="18" text-anchor="middle" dominant-baseline="central" fill="#1e1e1e">AutoBuild</text>
<rect x="320" y="150" width="200" height="66" rx="12" fill="#d0bfff" fill-opacity="1.00" stroke="#6741d9" stroke-width="2" stroke-opacity="1.00"/>
<text x="420" y="183" font-size="18" text-anchor="middle" dominant-baseline="central" fill="#1e1e1e">LiteLLM :4000</text>
<rect x="600" y="150" width="240" height="66" rx="12" fill="#fff3bf" fill-opacity="1.00" stroke="#f59e0b" stroke-width="2" stroke-opacity="1.00"/>
<text x="720" y="183" font-size="17" text-anchor="middle" dominant-baseline="central" fill="#1e1e1e">llama-swap :9000</text>
<rect x="920" y="150" width="240" height="66" rx="12" fill="#b2f2bb" fill-opacity="1.00" stroke="#22c55e" stroke-width="2" stroke-opacity="1.00"/>
<text x="1040" y="183" font-size="15" text-anchor="middle" dominant-baseline="central" fill="#1e1e1e">Node A: coach loaded</text>
<path d="M 230,183 L 320,183" fill="none" stroke="#1e1e1e" stroke-width="2" marker-end="url(#ah_1e1e1e)"/>
<rect x="222" y="174" width="106" height="18" fill="#ffffff" fill-opacity="0.82"/>
<text x="275" y="183" font-size="14" text-anchor="middle" dominant-baseline="central" fill="#1e1e1e">1 . coach</text>
<path d="M 520,183 L 600,183" fill="none" stroke="#1e1e1e" stroke-width="2" marker-end="url(#ah_1e1e1e)"/>
<rect x="522" y="174" width="75" height="18" fill="#ffffff" fill-opacity="0.82"/>
<text x="560" y="183" font-size="14" text-anchor="middle" dominant-baseline="central" fill="#1e1e1e">2 . route</text>
<path d="M 840,183 L 920,183" fill="none" stroke="#1e1e1e" stroke-width="2" marker-end="url(#ah_1e1e1e)"/>
<rect x="838" y="174" width="85" height="17" fill="#ffffff" fill-opacity="0.82"/>
<text x="880" y="183" font-size="13" text-anchor="middle" dominant-baseline="central" fill="#1e1e1e">3 . swap in</text>
<text x="600" y="226" font-size="13" text-anchor="start" dominant-baseline="hanging" fill="#b45309">evict current resident, load coach</text>
<path d="M 920,270 L 50,270" fill="none" stroke="#1971c2" stroke-width="2" stroke-dasharray="9 6" marker-end="url(#ah_1971c2)"/>
<rect x="397" y="261" width="175" height="18" fill="#ffffff" fill-opacity="0.82"/>
<text x="485" y="270" font-size="14" text-anchor="middle" dominant-baseline="central" fill="#1971c2">4 . tokens stream back</text>
<text x="60" y="360" font-size="18" text-anchor="start" dominant-baseline="hanging" fill="#b45309">Path B   -   big proposer across both nodes</text>
<rect x="50" y="400" width="180" height="66" rx="12" fill="#a5d8ff" fill-opacity="1.00" stroke="#1971c2" stroke-width="2" stroke-opacity="1.00"/>
<text x="140" y="433" font-size="16" text-anchor="middle" dominant-baseline="central" fill="#1e1e1e">Forge (proposer)</text>
<rect x="320" y="400" width="200" height="66" rx="12" fill="#d0bfff" fill-opacity="1.00" stroke="#6741d9" stroke-width="2" stroke-opacity="1.00"/>
<text x="420" y="433" font-size="18" text-anchor="middle" dominant-baseline="central" fill="#1e1e1e">LiteLLM :4000</text>
<rect x="600" y="400" width="240" height="66" rx="12" fill="#ffd8a8" fill-opacity="1.00" stroke="#e8860c" stroke-width="2" stroke-opacity="1.00"/>
<text x="720" y="433" font-size="16" text-anchor="middle" dominant-baseline="central" fill="#1e1e1e">vLLM head . Node A</text>
<rect x="920" y="400" width="240" height="66" rx="12" fill="#ffd8a8" fill-opacity="1.00" stroke="#e8860c" stroke-width="2" stroke-opacity="1.00"/>
<text x="1040" y="433" font-size="15" text-anchor="middle" dominant-baseline="central" fill="#1e1e1e">Node A + Node B  (TP=2)</text>
<path d="M 230,433 L 320,433" fill="none" stroke="#1e1e1e" stroke-width="2" marker-end="url(#ah_1e1e1e)"/>
<rect x="226" y="424" width="98" height="18" fill="#ffffff" fill-opacity="0.82"/>
<text x="275" y="433" font-size="14" text-anchor="middle" dominant-baseline="central" fill="#1e1e1e">1 . proposer</text>
<path d="M 520,433 L 600,433" fill="none" stroke="#1e1e1e" stroke-width="2" marker-end="url(#ah_1e1e1e)"/>
<rect x="522" y="424" width="75" height="18" fill="#ffffff" fill-opacity="0.82"/>
<text x="560" y="433" font-size="14" text-anchor="middle" dominant-baseline="central" fill="#1e1e1e">2 . route</text>
<path d="M 840,433 L 920,433" fill="none" stroke="#1e1e1e" stroke-width="2" marker-end="url(#ah_1e1e1e)"/>
<rect x="828" y="425" width="105" height="16" fill="#ffffff" fill-opacity="0.82"/>
<text x="880" y="433" font-size="12" text-anchor="middle" dominant-baseline="central" fill="#1e1e1e">3 . TP=2 / CX-7</text>
<text x="345" y="476" font-size="13" text-anchor="start" dominant-baseline="hanging" fill="#5f3dc4">(same proxy instance)</text>
<text x="905" y="476" font-size="12" text-anchor="start" dominant-baseline="hanging" fill="#b45309">weights + compute split over 200G CX-7</text>
<path d="M 920,512 L 50,512" fill="none" stroke="#b45309" stroke-width="2" stroke-dasharray="9 6" marker-end="url(#ah_b45309)"/>
<rect x="378" y="503" width="214" height="18" fill="#ffffff" fill-opacity="0.82"/>
<text x="485" y="512" font-size="14" text-anchor="middle" dominant-baseline="central" fill="#b45309">4 . tokens back (~44 tok/s, MTP)</text>
</svg>
