<svg xmlns="http://www.w3.org/2000/svg" viewBox="12 -16 1176 874" width="1176" height="874" font-family="Helvetica,Arial,sans-serif">
<defs>
<marker id="ah_6741d9" viewBox="0 0 10 10" refX="8" refY="5" markerUnits="userSpaceOnUse" markerWidth="12" markerHeight="12" orient="auto-start-reverse"><path d="M0,0 L10,5 L0,10 z" fill="#6741d9"/></marker>
<marker id="ah_1e1e1e" viewBox="0 0 10 10" refX="8" refY="5" markerUnits="userSpaceOnUse" markerWidth="12" markerHeight="12" orient="auto-start-reverse"><path d="M0,0 L10,5 L0,10 z" fill="#1e1e1e"/></marker>
<marker id="ah_0c8599" viewBox="0 0 10 10" refX="8" refY="5" markerUnits="userSpaceOnUse" markerWidth="12" markerHeight="12" orient="auto-start-reverse"><path d="M0,0 L10,5 L0,10 z" fill="#0c8599"/></marker>
</defs>
<rect x="12" y="-16" width="1176" height="874" fill="#ffffff"/>
<text x="366" y="12" font-size="26" text-anchor="start" dominant-baseline="hanging" fill="#1e1e1e">Two-Spark Fleet Serving Architecture</text>
<rect x="320" y="74" width="560" height="58" rx="12" fill="#a5d8ff" fill-opacity="1.00" stroke="#1971c2" stroke-width="2" stroke-opacity="1.00"/>
<text x="600" y="103" font-size="18" text-anchor="middle" dominant-baseline="central" fill="#1e1e1e">Local agent fleet + Claude Desktop (OpenAI clients)</text>
<path d="M 600,132 L 600,178" fill="none" stroke="#1e1e1e" stroke-width="2" marker-end="url(#ah_1e1e1e)"/>
<rect x="300" y="180" width="600" height="80" rx="12" fill="#d0bfff" fill-opacity="1.00" stroke="#6741d9" stroke-width="2" stroke-opacity="1.00"/>
<text x="600" y="220" font-size="19" text-anchor="middle" dominant-baseline="central" fill="#1e1e1e">LiteLLM proxy  :4000   one OpenAI front door</text>
<text x="322" y="236" font-size="14" text-anchor="start" dominant-baseline="hanging" fill="#5f3dc4">aliases | virtual keys | spend tracking | NO auto cloud fallback (DF-001)</text>
<rect x="40" y="320" width="540" height="430" rx="12" fill="#dbe4ff" fill-opacity="0.35" stroke="#4a9eed" stroke-width="1" stroke-opacity="0.35"/>
<text x="60" y="330" font-size="18" text-anchor="start" dominant-baseline="hanging" fill="#1971c2">Node A   GB10 . 128GB</text>
<rect x="700" y="320" width="460" height="430" rx="12" fill="#d3f9d8" fill-opacity="0.35" stroke="#22c55e" stroke-width="1" stroke-opacity="0.35"/>
<text x="720" y="330" font-size="18" text-anchor="start" dominant-baseline="hanging" fill="#15803d">Node B   GB10 . 128GB</text>
<rect x="588" y="470" width="108" height="52" rx="12" fill="#ffd8a8" fill-opacity="1.00" stroke="#e8860c" stroke-width="2" stroke-opacity="1.00"/>
<text x="642" y="496" font-size="14" text-anchor="middle" dominant-baseline="central" fill="#1e1e1e">CX-7 200G</text>
<rect x="70" y="372" width="230" height="56" rx="12" fill="#d0bfff" fill-opacity="1.00" stroke="#6741d9" stroke-width="2" stroke-opacity="1.00"/>
<text x="185" y="400" font-size="18" text-anchor="middle" dominant-baseline="central" fill="#1e1e1e">llama-swap :9000</text>
<text x="80" y="434" font-size="14" text-anchor="start" dominant-baseline="hanging" fill="#5f3dc4">transparent swap-to-fit</text>
<rect x="70" y="462" width="230" height="46" rx="12" fill="#c3fae8" fill-opacity="1.00" stroke="#0c8599" stroke-width="2" stroke-opacity="1.00"/>
<text x="185" y="485" font-size="15" text-anchor="middle" dominant-baseline="central" fill="#1e1e1e">embed: Qwen3-Embedding-0.6B (1024-dim)</text>
<rect x="70" y="560" width="480" height="68" rx="12" fill="#fff3bf" fill-opacity="1.00" stroke="#f59e0b" stroke-width="2" stroke-opacity="1.00"/>
<text x="310" y="594" font-size="16" text-anchor="middle" dominant-baseline="central" fill="#1e1e1e">Fleet: workhorse . coach . chat (+ gpt-oss-120b on-demand)</text>
<path d="M 185,508 L 185,560" fill="none" stroke="#6741d9" stroke-width="2" marker-end="url(#ah_6741d9)"/>
<rect x="320" y="372" width="580" height="66" rx="12" fill="#ffd8a8" fill-opacity="1.00" stroke="#e8860c" stroke-width="2" stroke-opacity="1.00"/>
<text x="610" y="405" font-size="18" text-anchor="middle" dominant-baseline="central" fill="#1e1e1e">vLLM TP=2   DeepSeek-V4-Flash ~158GB (284B-A13B)</text>
<text x="330" y="446" font-size="14" text-anchor="start" dominant-baseline="hanging" fill="#b45309">the proposer - launched on demand (~6 min cold start)</text>
<path d="M 430,260 L 185,372" fill="none" stroke="#1e1e1e" stroke-width="2" marker-end="url(#ah_1e1e1e)"/>
<rect x="285" y="307" width="44" height="18" fill="#ffffff" fill-opacity="0.82"/>
<text x="308" y="316" font-size="14" text-anchor="middle" dominant-baseline="central" fill="#1e1e1e">fleet</text>
<path d="M 610,260 L 610,372" fill="none" stroke="#1e1e1e" stroke-width="2" marker-end="url(#ah_1e1e1e)"/>
<rect x="576" y="307" width="68" height="18" fill="#ffffff" fill-opacity="0.82"/>
<text x="610" y="316" font-size="14" text-anchor="middle" dominant-baseline="central" fill="#1e1e1e">proposer</text>
<rect x="300" y="778" width="600" height="52" rx="12" fill="#c3fae8" fill-opacity="1.00" stroke="#0c8599" stroke-width="2" stroke-opacity="1.00"/>
<text x="600" y="804" font-size="15" text-anchor="middle" dominant-baseline="central" fill="#1e1e1e">Synology NAS - Postgres + pgvector (fleet-memory)</text>
<path d="M 320,752 L 380,778" fill="none" stroke="#0c8599" stroke-width="2" stroke-dasharray="9 6" marker-end="url(#ah_0c8599)" marker-start="url(#ah_0c8599)"/>
<rect x="336" y="756" width="27" height="17" fill="#ffffff" fill-opacity="0.82"/>
<text x="350" y="765" font-size="13" text-anchor="middle" dominant-baseline="central" fill="#0c8599">LAN</text>
</svg>
